<svg xmlns="http://www.w3.org/2000/svg" width="200" height="200" viewBox="0 0 200 200">
  <!-- Background Circle -->
  <circle cx="100" cy="100" r="90" fill="#4F46E5" />
  
  <!-- Inner Light Ring -->
  <circle cx="100" cy="100" r="75" fill="#6366F1" />
  
  <!-- Center Element representing AI/Support -->
  <g>
    <!-- Abstract Representation of "S" for SAHAYAA -->
    <path d="M75 60 Q60 65, 65 80 Q70 95, 85 100 Q70 105, 65 120 Q60 135, 75 140" 
          stroke="white" stroke-width="8" fill="transparent" stroke-linecap="round" />
    
    <!-- Abstract Chat/Message Bubbles -->
    <circle cx="120" cy="70" r="15" fill="white" opacity="0.9" />
    <circle cx="135" cy="100" r="12" fill="white" opacity="0.7" />
    <circle cx="120" cy="130" r="10" fill="white" opacity="0.5" />
    
    <!-- Connection Lines -->
    <line x1="105" y1="70" x2="115" y2="70" stroke="white" stroke-width="3" />
    <line x1="120" y1="85" x2="125" y2="95" stroke="white" stroke-width="3" />
    <line x1="130" y1="112" x2="125" y2="120" stroke="white" stroke-width="3" />
  </g>
  
  <!-- Replaced text with path for better compatibility -->
  <path d="M54 175h3.3v-14.3h-3.3V175zm10.2 0h3.2v-7c0-1 .2-1.8.5-2.3.3-.5.9-.7 1.8-.7s1.5.2 1.8.7c.3.5.5 1.3.5 2.3v7h3.2v-7.5c0-1.7-.4-3-1.3-3.8-.8-.8-2-1.2-3.6-1.2-1 0-1.8.2-2.5.5-.7.4-1.2.9-1.6 1.6h-.1v-1.7h-3V175zm16 0h3.3v-10.8H87v-2.6h-3.3v-4h-3.2v4h-2.3v2.6h2.3V175zm11.6.3c1.1 0 2-.2 2.8-.6.9-.4 1.5-1 2-1.7h.1v2h3v-10.3c0-1.6-.5-2.9-1.5-3.7-1-.9-2.4-1.3-4.2-1.3-1.2 0-2.3.2-3.2.5-1 .4-1.7.9-2.3 1.6-.5.7-.8 1.5-.8 2.4h3.1c0-.7.3-1.2.8-1.5.4-.4 1-.6 1.9-.6 1 0 1.7.2 2.2.7.5.5.7 1.2.7 2.2v1h-2.5c-2 0-3.5.4-4.5 1.2-1 .8-1.5 2-1.5 3.4 0 1.3.5 2.3 1.4 3.1.9.8 2 1.2 3.5 1.2zm1-2.6c-.8 0-1.5-.2-1.9-.6-.5-.4-.7-.9-.7-1.5 0-.7.2-1.2.7-1.6.5-.4 1.2-.6 2.1-.6h2.4v2.4c-.2.6-.7 1.1-1.3 1.4-.6.3-1.2.5-1.9.5h-.1c.1 0 .1 0 0 0zm14.3 2.6c1.1 0 2-.2 2.8-.6.9-.4 1.5-1 2-1.7h.1v2h3v-10.3c0-1.6-.5-2.9-1.5-3.7-1-.9-2.4-1.3-4.2-1.3-1.2 0-2.3.2-3.2.5-1 .4-1.7.9-2.3 1.6-.5.7-.8 1.5-.8 2.4h3.1c0-.7.3-1.2.8-1.5.4-.4 1-.6 1.9-.6 1 0 1.7.2 2.2.7.5.5.7 1.2.7 2.2v1h-2.5c-2 0-3.5.4-4.5 1.2-1 .8-1.5 2-1.5 3.4 0 1.3.5 2.3 1.4 3.1.9.8 2 1.2 3.5 1.2zm1-2.6c-.8 0-1.5-.2-1.9-.6-.5-.4-.7-.9-.7-1.5 0-.7.2-1.2.7-1.6.5-.4 1.2-.6 2.1-.6h2.4v2.4c-.2.6-.7 1.1-1.3 1.4-.6.3-1.2.5-1.9.5h-.1c.1 0 .1 0 0 0zm14.3 2.6c1.1 0 2-.2 2.8-.6.9-.4 1.5-1 2-1.7h.1v2h3v-10.3c0-1.6-.5-2.9-1.5-3.7-1-.9-2.4-1.3-4.2-1.3-1.2 0-2.3.2-3.2.5-1 .4-1.7.9-2.3 1.6-.5.7-.8 1.5-.8 2.4h3.1c0-.7.3-1.2.8-1.5.4-.4 1-.6 1.9-.6 1 0 1.7.2 2.2.7.5.5.7 1.2.7 2.2v1h-2.5c-2 0-3.5.4-4.5 1.2-1 .8-1.5 2-1.5 3.4 0 1.3.5 2.3 1.4 3.1.9.8 2 1.2 3.5 1.2zm1-2.6c-.8 0-1.5-.2-1.9-.6-.5-.4-.7-.9-.7-1.5 0-.7.2-1.2.7-1.6.5-.4 1.2-.6 2.1-.6h2.4v2.4c-.2.6-.7 1.1-1.3 1.4-.6.3-1.2.5-1.9.5h-.1c.1 0 .1 0 0 0zm14.3 2.3h3.3v-14.3h-3.3V175zm10.2 0h3.2v-7c0-1 .2-1.8.5-2.3.3-.5.9-.7 1.8-.7s1.5.2 1.8.7c.3.5.5 1.3.5 2.3v7h3.2v-7.5c0-1.7-.4-3-1.3-3.8-.8-.8-2-1.2-3.6-1.2-1 0-1.8.2-2.5.5-.7.4-1.2.9-1.6 1.6h-.1v-1.7h-3V175z" fill="white"/>
  <path d="M147.4 175h3v-13.2h-3V175zm0-16.5h3v-2.7h-3v2.7z" fill="white"/>
</svg>